<svg width="125" height="42" viewBox="0 0 125 42" fill="none" xmlns="http://www.w3.org/2000/svg">
<g clip-path="url(#clip0_13917_52410)">
<path fill-rule="evenodd" clip-rule="evenodd" d="M23.0732 26.7053V12.5343C23.0732 12.0757 23.2309 11.6851 23.5463 11.3626C23.8616 11.0401 24.2451 10.8789 24.7002 10.8789H26.2842V16.7659H32.7024V10.8789H35.9527V26.7017H32.7024V19.661H26.2842V26.7017H23.0732V26.7053Z" fill="white"/>
<path fill-rule="evenodd" clip-rule="evenodd" d="M37.5525 26.7053V12.5343C37.5525 12.0757 37.7138 11.6851 38.0363 11.3626C38.3588 11.0401 38.7494 10.8789 39.2081 10.8789H43.2182C45.6371 10.8789 47.4468 11.5203 48.6402 12.8066C49.8371 14.1538 50.4356 16.1532 50.4356 18.7867C50.4356 20.1985 50.2205 21.474 49.7941 22.6063C49.2996 23.7708 48.6617 24.6665 47.859 25.2757C47.1852 25.7988 46.4649 26.1678 45.698 26.3828C44.9598 26.5942 43.8453 26.7053 42.3438 26.7053H37.5525ZM40.7276 23.8496H42.7989C44.3004 23.8496 45.4078 23.4519 46.1101 22.6528C46.7839 21.9183 47.1207 20.6284 47.1207 18.7867C47.1207 17.0131 46.8018 15.7053 46.1567 14.8812C45.5439 14.0499 44.562 13.6379 43.2218 13.6379H40.7311V23.8496H40.7276Z" fill="white"/>
<path fill-rule="evenodd" clip-rule="evenodd" d="M52.0183 26.7053V12.5343C52.0183 12.0757 52.176 11.6851 52.4985 11.3626C52.821 11.0402 53.2045 10.8789 53.6632 10.8789H59.4185C61.0311 10.8754 62.271 11.2122 63.1203 11.8894C63.9732 12.6275 64.4033 13.6236 64.4033 14.8812C64.4033 15.6767 64.2312 16.3539 63.9016 16.9056C63.5611 17.4216 63.0917 17.8444 62.4825 18.1454C63.2744 18.4822 63.8836 18.9587 64.3101 19.5679C64.7007 20.1591 64.9014 20.9258 64.9014 21.8754C64.9014 23.4089 64.4176 24.6021 63.4393 25.4584C62.4323 26.2861 61.0168 26.7053 59.1891 26.7053H52.0183ZM55.1289 16.9952H58.8272C59.6191 16.9952 60.1961 16.8591 60.5616 16.5796C60.9236 16.3037 61.1135 15.8737 61.1135 15.2933C61.1135 14.7092 60.9272 14.2828 60.5616 14.007C60.257 13.7597 59.6657 13.6379 58.7806 13.6379H55.1253V16.9952H55.1289ZM55.1289 23.8496H58.9633C59.8198 23.8496 60.472 23.6776 60.9272 23.3408C61.3536 23.0363 61.5686 22.5167 61.5686 21.775C61.5686 21.0405 61.3536 20.503 60.9272 20.1662C60.533 19.8581 59.8628 19.7004 58.9203 19.7004H55.1325V23.8496H55.1289Z" fill="white"/>
<path fill-rule="evenodd" clip-rule="evenodd" d="M89.7484 26.703H88.1178C87.6519 26.703 87.2721 26.5561 86.9746 26.2659C86.6808 25.9757 86.5339 25.5959 86.5339 25.1372V18.5695C86.5339 17.8314 86.3081 17.2975 85.8566 16.9571C85.405 16.6203 84.8997 16.4483 84.3407 16.4483C83.7816 16.4483 83.2835 16.6203 82.8499 16.9571C82.4127 17.2975 82.1941 17.8278 82.1941 18.5695V26.703H78.9294V19.2108C78.9294 17.1291 79.4813 15.7317 80.5851 15.0222C81.6888 14.32 82.9073 13.9366 84.2475 13.8721C85.6129 13.8721 86.8743 14.2304 88.0211 14.9327C89.1786 15.6349 89.7484 17.061 89.7484 19.2108V26.703Z" fill="white"/>
<path fill-rule="evenodd" clip-rule="evenodd" d="M75.9361 14.7486C75.0366 14.1574 73.6891 13.8672 71.8866 13.8672C70.2811 13.8672 69.0484 14.2219 68.1775 14.9314C67.4071 15.5476 66.9555 16.3359 66.8337 17.2962H70.0589C70.2202 16.9558 70.4746 16.7229 70.8294 16.5975C71.1842 16.4757 71.5856 16.4147 72.0371 16.4147C72.4528 16.4147 72.9079 16.4864 73.4096 16.6226C73.9077 16.7623 74.155 17.0597 74.155 17.5255C74.155 18.1418 73.449 18.5431 72.0371 18.7294C71.7432 18.7616 71.4852 18.7939 71.263 18.8441C71.0373 18.8871 70.8438 18.9121 70.6789 18.9121C69.4605 19.0949 68.4571 19.4711 67.6687 20.0229C66.8803 20.5783 66.4861 21.5063 66.4861 22.8033C66.4861 24.1972 66.9233 25.1861 67.7905 25.7916C68.6542 26.3972 69.6683 26.6981 70.8223 26.6981C72.1984 26.6981 73.4598 26.5763 74.5958 25.8239C74.6603 26.003 74.7535 26.1643 74.8789 26.304C75.1405 26.5942 75.4774 26.7411 75.8859 26.7411H77.3301V21.5528V21.4489V17.3356C77.3337 16.2284 76.8678 15.3649 75.9361 14.7486ZM74.198 21.4203C74.198 22.2838 73.9436 22.9646 73.4275 23.459C72.9115 23.9535 72.2055 24.2043 71.3096 24.2043C70.7613 24.2043 70.3456 24.0789 70.0554 23.8281C69.7687 23.5558 69.6253 23.1867 69.6253 22.7209C69.6253 22.3805 69.7328 22.0366 69.9586 21.6998C70.2202 21.4525 70.6323 21.2555 71.2129 21.1014L72.3238 20.8685C73.1265 20.6822 73.7537 20.4815 74.2016 20.2665V21.4203H74.198Z" fill="white"/>
<path fill-rule="evenodd" clip-rule="evenodd" d="M94.5225 14.4639V18.7528L98.3749 13.8691H102.181L97.8732 19.1577L102.224 26.7072H98.4143L96.1996 22.5652C95.7445 21.7375 95.3503 21.3864 95.017 21.5118C94.6837 21.6336 94.5189 21.8164 94.5189 22.0564V23.762V26.7072H91.3474V10.8809H92.9815C93.4008 10.8809 93.7628 11.0349 94.0674 11.3395C94.3684 11.6512 94.5189 12.0024 94.5189 12.4001V14.4639H94.5225Z" fill="white"/>
<mask id="mask0_13917_52410" style="mask-type:luminance" maskUnits="userSpaceOnUse" x="102" y="0" width="8" height="8">
<path d="M102.262 5.89329C102.262 7.04704 103.018 7.4161 104.247 7.45193C105.609 7.49134 107.817 7.26561 109.702 6.95388C109.737 6.95388 109.734 6.92521 109.716 6.91805C106.663 5.81447 107.293 0.550948 107.2 0.199808C106.896 -0.950355 102.262 3.12 102.262 5.89329Z" fill="white"/>
</mask>
<g mask="url(#mask0_13917_52410)">
<path d="M112.974 5.97383L108.405 -3.82227L99.0298 0.549075L103.602 10.3487L112.974 5.97383Z" fill="white"/>
</g>
<mask id="mask1_13917_52410" style="mask-type:luminance" maskUnits="userSpaceOnUse" x="106" y="4" width="19" height="15">
<path d="M124.484 5.025C122.517 5.88852 114.389 8.64748 106.215 8.91262C106.53 13.6279 109.626 18.7947 112.153 18.7947C118.568 18.7947 123.721 8.10285 124.803 5.81328C125.222 4.96768 124.903 4.84226 124.484 5.025Z" fill="white"/>
</mask>
<g mask="url(#mask1_13917_52410)">
<path d="M103.829 18.3726L124.653 22.0452L127.61 5.25858L106.789 1.58594L103.829 18.3726Z" fill="white"/>
</g>
<path d="M89.6951 37.2039C89.4693 37.7486 89.2364 38.2896 89.0178 38.8378C88.9354 39.0421 88.8171 39.1352 88.5878 39.1316C87.975 39.1316 87.9821 39.1818 87.7098 38.5404C87.0361 36.946 86.3767 35.3443 85.6671 33.7463C85.6636 33.8323 85.6636 34.0616 85.6636 34.1476C85.6636 35.7277 85.6564 37.0427 85.6564 38.6228C85.6564 38.9059 85.5704 39.128 85.2729 39.128C84.0903 39.128 84.2086 39.1567 84.2086 38.2036C84.2086 36.0932 84.2086 33.8574 84.2086 31.7505C84.2086 31.3922 84.2265 31.3779 84.5706 31.3779C84.8931 31.3779 85.212 31.3743 85.5345 31.3779C86.0076 31.3815 86.2979 31.5785 86.477 32.0157C87.1006 33.5385 88.3799 36.6629 88.4229 36.7561C88.5842 36.3655 89.9496 33.044 90.4728 31.7254C90.5731 31.4675 90.7093 31.36 90.9924 31.3743C91.4332 31.3958 91.8775 31.3886 92.3183 31.3779C92.5405 31.3707 92.6301 31.4424 92.6301 31.6753C92.6265 34.0616 92.6265 36.2974 92.6301 38.6873C92.6301 38.9131 92.5047 39.1101 92.2717 39.128C92.1033 39.128 92.0101 39.1424 91.8525 39.1352C91.3149 39.1209 91.2217 39.0062 91.2002 38.5798C91.1967 38.501 91.1966 38.3362 91.1966 38.2574C91.1966 36.8528 91.1966 35.4447 91.1966 34.0401C91.1966 33.9505 91.1966 33.8574 91.1966 33.7678C91.1787 33.7535 90.1753 36.0538 89.6951 37.2039Z" fill="white"/>
<path d="M28.3274 36.5554C28.3274 36.4659 28.3274 36.3727 28.3274 36.2831C28.3274 34.7711 28.3274 33.2626 28.3274 31.7506C28.3274 31.4818 28.3489 31.3779 28.6929 31.3779C28.9259 31.3779 29.1624 31.3779 29.3953 31.3779C29.7537 31.3779 29.786 31.4747 29.7645 31.7434C29.7645 33.9398 29.7645 36.1362 29.7645 38.3327C29.7645 38.5046 29.7645 38.6802 29.7645 38.8522C29.7645 39.017 29.6784 39.1209 29.4813 39.1281C29.2914 39.1209 29.1409 39.1424 28.908 39.1281C28.4851 39.1352 28.2199 38.9848 27.987 38.6587C26.9047 37.1395 25.8081 35.631 24.7187 34.1154C24.6506 34.0186 24.561 33.8896 24.4535 33.7786C24.4535 33.8682 24.4535 34.0151 24.4535 34.1082C24.4535 35.6454 24.4535 37.0893 24.4535 38.6265C24.4535 38.9561 24.3783 39.0994 24.0307 39.1281C23.9017 39.1281 23.7691 39.1317 23.6401 39.1245C23.2423 39.103 23.0344 38.8952 23.0308 38.4975C23.0237 37.8131 23.0273 37.1252 23.0273 36.4408C23.0273 34.8786 23.0273 33.3164 23.0273 31.7541C23.0201 31.4711 23.0953 31.3815 23.3856 31.3815C24.5252 31.3708 24.4571 31.3636 25.0986 32.245C26.102 33.6281 27.1126 35.0076 28.1196 36.387C28.1662 36.4515 28.2127 36.5089 28.2629 36.5734C28.288 36.5949 28.3203 36.5949 28.3274 36.5554Z" fill="white"/>
<path d="M48.5347 38.0804C48.1692 38.6251 47.732 38.987 47.1443 39.1518C46.3917 39.3632 45.5818 39.2163 44.9547 38.7505C44.1233 38.1342 43.7757 37.0521 43.8724 36.0488C43.9656 35.0814 44.496 34.1928 45.3632 33.7306C46.2806 33.2397 47.4525 33.229 48.3699 33.7306C48.9468 34.0459 49.4091 34.5547 49.6277 35.1746C49.7961 35.6511 49.7926 36.1456 49.8105 36.6436C49.8391 37.4283 49.8642 38.213 49.7997 38.9941C49.6922 40.3199 48.8465 41.1368 47.5277 41.3697C46.6641 41.5202 45.8327 41.427 45.0622 40.9684C44.6071 40.6961 44.2881 40.3055 44.0839 39.8182C44.0158 39.6606 44.0731 39.571 44.238 39.5567C44.4566 39.5387 44.7002 39.5387 44.9188 39.5674C45.1805 39.5997 45.3919 39.7 45.5926 39.8684C45.7825 40.0296 45.9581 40.2159 46.191 40.3199C46.5888 40.4954 47.0403 40.4632 47.4489 40.3342C48.076 40.13 48.4272 39.657 48.5275 39.0192C48.5705 38.7361 48.5347 38.4352 48.5347 38.0804ZM45.141 36.2065C45.1446 36.8909 45.313 37.3961 45.7717 37.7687C46.5028 38.3599 47.6352 38.2309 48.1943 37.5036C48.7999 36.7117 48.6566 35.386 47.8897 34.8306C47.3127 34.4114 46.6748 34.3791 46.0477 34.6909C45.3811 35.0133 45.1446 35.6081 45.141 36.2065Z" fill="white"/>
<path d="M61.569 34.4739C61.9452 34.0296 62.3251 33.7251 62.7945 33.5459C63.4002 33.313 64.0166 33.2915 64.6258 33.5101C65.3927 33.7824 65.6829 34.4273 65.7259 35.1619C65.7904 36.2762 65.7833 37.3977 65.8012 38.5156C65.8119 39.1749 65.7725 39.2036 65.1131 39.1211C64.7404 39.0746 64.5362 38.8488 64.5326 38.4475C64.5326 37.8277 64.5398 37.2078 64.5326 36.5879C64.5254 36.1006 64.5326 35.5596 64.357 35.0974C64.1707 34.6065 63.694 34.4667 63.2031 34.4954C63.135 34.499 63.0669 34.5062 62.9988 34.5205C62.601 34.5922 62.2355 34.8036 61.9775 35.1153C61.7266 35.4198 61.5869 35.8068 61.5761 36.2009C61.5546 37.0609 61.569 37.9208 61.569 38.7772C61.569 39.1068 61.551 39.1247 61.2106 39.1247C61.0099 39.1247 60.8092 39.1104 60.6121 39.1283C60.3541 39.1498 60.2824 39.0316 60.286 38.7915C60.2968 38.0032 60.2896 37.2114 60.2896 36.4231C60.2896 34.9039 60.2896 33.3847 60.2896 31.8654C60.2896 31.371 60.2896 31.371 60.7949 31.3746C60.8379 31.3746 60.8809 31.3746 60.9239 31.3746C61.3288 31.3961 61.5618 31.6325 61.569 32.041C61.5761 32.7254 61.5725 33.4133 61.5725 34.0977C61.5689 34.198 61.569 34.2912 61.569 34.4739Z" fill="white"/>
<path d="M56.8938 32.6476C56.8938 32.7802 56.8938 32.8805 56.8938 32.9844C56.8938 34.7544 56.8938 36.5245 56.8938 38.2945C56.8938 38.9574 56.7218 39.1293 56.0624 39.1293C55.3958 39.1293 55.4639 39.1831 55.4639 38.5274C55.4639 36.6893 55.4639 34.8476 55.4639 33.0095C55.4639 32.9056 55.4639 32.8017 55.4639 32.6691C55.3564 32.6619 55.2668 32.6512 55.1737 32.6512C54.4892 32.6512 53.8011 32.644 53.1167 32.6548C52.8837 32.6583 52.8049 32.5688 52.8157 32.3502C52.8264 32.1854 52.8121 32.0206 52.8192 31.8557C52.83 31.5082 52.9518 31.3899 53.2994 31.3864C53.708 31.3828 54.1165 31.3864 54.5215 31.3864C56.0732 31.3864 57.6284 31.3864 59.1801 31.3864C59.5385 31.3864 59.5564 31.5189 59.5564 31.888C59.5564 32.0707 59.5457 32.1388 59.56 32.318C59.5779 32.5616 59.4847 32.6619 59.2303 32.6548C58.553 32.644 57.8757 32.6512 57.1984 32.6512C57.1088 32.6476 57.0156 32.6476 56.8938 32.6476Z" fill="white"/>
<path d="M79.128 37.2722C79.128 37.7918 79.1208 38.315 79.1316 38.8346C79.1352 39.0497 79.0456 39.1213 78.8377 39.1285C77.9991 39.1464 77.8522 39.0067 77.8522 38.1609C77.8522 37.4765 77.8666 36.7884 77.8451 36.1039C77.8379 35.8208 77.8092 35.5234 77.7053 35.2654C77.458 34.6526 76.7736 34.3766 75.9887 34.5236C75.3544 34.6454 74.9172 35.1149 74.9029 35.7707C74.8778 36.7669 74.8922 37.7667 74.8886 38.763C74.8886 39.0998 74.8671 39.1213 74.5374 39.1213C74.3116 39.1213 74.0859 39.1178 73.8601 39.1213C73.7024 39.1249 73.6092 39.0676 73.6128 38.8956C73.62 37.7847 73.5913 36.6737 73.6487 35.5628C73.7024 34.5594 74.2435 33.857 75.2111 33.5381C76.0927 33.2478 76.9778 33.2693 77.8236 33.6599C78.6944 34.0613 79.0635 34.8138 79.1172 35.7312C79.1459 36.2401 79.1208 36.7562 79.1208 37.2686C79.1244 37.2722 79.1244 37.2722 79.128 37.2722Z" fill="white"/>
<path d="M37.5699 35.6749C37.638 34.4493 38.3583 33.6537 39.5695 33.428C40.3508 33.2846 41.1105 33.3348 41.8272 33.6968C42.6192 34.1017 43.0062 34.7898 43.0385 35.6534C43.0743 36.7177 43.0528 37.7892 43.06 38.8536C43.06 39.0399 42.9847 39.1116 42.7984 39.1223C41.7735 39.1223 41.8272 39.1367 41.8272 38.273C41.8272 37.5599 41.8129 36.7607 41.7842 36.0225C41.7734 34.7718 40.6554 34.091 39.5337 34.6572C39.0284 34.9116 38.8349 35.3595 38.8277 35.8971C38.8206 36.8503 38.8241 37.7785 38.8241 38.7317C38.8241 39.0722 38.731 39.1152 38.4765 39.1223C38.2687 39.1223 38.0716 39.1259 37.853 39.1259C37.62 39.1259 37.5412 39.0471 37.5448 38.8249C37.552 38.2874 37.5484 37.7498 37.5484 37.2123C37.552 37.2087 37.5412 36.1838 37.5699 35.6749Z" fill="white"/>
<path d="M69.7763 39.2798C69.0416 39.3013 68.2998 39.0899 67.7121 38.6455C67.4684 38.4592 67.2534 38.237 67.0814 37.9826C66.5438 37.1834 66.4435 36.0832 66.8019 35.1909C67.0706 34.5244 67.5902 33.9689 68.246 33.6786C69.21 33.2486 70.389 33.2343 71.3244 33.7503C72.1593 34.2126 72.722 35.0942 72.7972 36.0438C72.8832 37.0831 72.446 38.1187 71.5788 38.71C71.285 38.9107 70.9588 39.0612 70.6148 39.1544C70.3389 39.2297 70.0558 39.2726 69.7763 39.2798ZM69.6974 34.5029C68.6152 34.5029 67.8841 35.2303 67.8769 36.3126C67.8698 37.3984 68.6187 38.1546 69.701 38.1546C70.7832 38.1546 71.525 37.402 71.5179 36.309C71.5143 35.2268 70.7832 34.5029 69.6974 34.5029Z" fill="white"/>
<path d="M71.3692 33.0817C70.889 33.1641 70.5665 33.1211 70.2762 32.7555C70.097 32.5226 69.9035 32.2574 69.6992 31.9994C69.5129 32.2574 69.3803 32.4474 69.1689 32.7484C68.8965 33.1784 68.4701 33.1569 68.0508 33.096C68.101 33.0279 68.6815 32.1356 68.9431 31.7271C69.0434 31.5909 69.1402 31.4798 69.4125 31.4511C69.4269 31.444 69.4484 31.4475 69.4627 31.4475C70.2583 31.426 70.2619 31.426 70.6955 32.0711C70.9105 32.3936 71.1255 32.7125 71.3692 33.0817Z" fill="white"/>
<path d="M33.7489 39.273C33.0143 39.2945 32.2725 39.0831 31.6847 38.6387C31.4411 38.4523 31.226 38.2302 31.054 37.9757C30.5165 37.1766 30.4161 36.0764 30.7745 35.1841C31.0433 34.5175 31.5629 33.9621 32.2187 33.6718C33.1827 33.2418 34.3617 33.2274 35.297 33.7435C36.132 34.2058 36.6946 35.0873 36.7699 36.037C36.8559 37.0762 36.4187 38.1119 35.5515 38.7032C35.2576 38.9039 34.9315 39.0544 34.5875 39.1476C34.3115 39.2228 34.032 39.2658 33.7489 39.273ZM33.6701 34.496C32.5878 34.496 31.8568 35.2235 31.8496 36.3058C31.8424 37.3916 32.5914 38.1477 33.6736 38.1477C34.7559 38.1477 35.4977 37.3952 35.4905 36.3022C35.487 35.2199 34.7559 34.496 33.6701 34.496Z" fill="white"/>
<path d="M35.3448 33.0768C34.8646 33.1592 34.5421 33.1162 34.2518 32.7507C34.0726 32.5177 33.8791 32.2525 33.6748 31.9945C33.4885 32.2525 33.3559 32.4425 33.1445 32.7435C32.8721 33.1735 32.4456 33.152 32.0264 33.0911C32.0765 33.023 32.6571 32.1307 32.9187 31.7222C33.019 31.586 33.1158 31.4749 33.3881 31.4462C33.4025 31.4391 33.424 31.4426 33.4383 31.4426C34.2339 31.4211 34.2374 31.4212 34.6711 32.0662C34.8825 32.3887 35.0975 32.7077 35.3448 33.0768Z" fill="white"/>
<path d="M98.5423 33.9398C98.6964 33.6961 98.8433 33.4704 99.0153 33.2017C98.9652 33.2805 98.5351 33.1336 98.4706 33.0906C98.295 32.9759 98.2162 32.743 98.2305 32.5388C98.2449 32.3274 98.3667 32.1267 98.5459 32.0192C98.9007 31.8007 99.3844 31.9763 99.5421 32.3561C99.7751 32.9114 99.5887 33.4095 99.2949 33.8789C99.1981 34.0293 99.0727 34.1619 98.9508 34.3124C99.1981 34.5489 99.4418 35.0684 99.4776 35.1473C99.7751 35.8639 99.7894 36.7131 99.4991 37.4333C99.0368 38.5727 97.9546 39.1925 96.7577 39.2535C95.722 39.3072 94.7007 38.9166 94.0485 38.0961C93.3246 37.1824 93.3102 35.8137 93.8729 34.8176C94.5609 33.6101 95.9908 33.1694 97.2988 33.4417C97.4672 33.4776 97.6321 33.5241 97.7933 33.5815C97.9797 33.646 98.1624 33.7284 98.3345 33.8215C98.356 33.8287 98.5459 33.9398 98.5423 33.9398ZM94.7724 36.2795C94.758 37.3616 95.4819 38.1284 96.5426 38.1463C97.6392 38.1642 98.4061 37.4225 98.4205 36.3261C98.4348 35.2691 97.6966 34.5095 96.643 34.4951C95.5285 34.4808 94.7867 35.1938 94.7724 36.2795Z" fill="white"/>
<path d="M97.8223 31.5422C97.2632 32.0332 96.7149 32.5385 96.138 33.0115C95.8621 33.2408 95.518 33.1226 95.1704 33.0617C95.2923 32.9326 96.1129 32.0905 96.3852 31.7931C96.6003 31.5601 96.8475 31.4419 97.1665 31.4598C97.3779 31.4705 97.8151 31.5135 97.8223 31.5422Z" fill="white"/>
<path d="M100.614 36.3046C100.614 35.4876 100.614 34.6741 100.614 33.857C100.614 33.5453 100.643 33.5202 100.962 33.5166C101.023 33.5166 101.083 33.5166 101.144 33.5166C101.686 33.5202 101.908 33.7352 101.908 34.2727C101.908 35.6596 101.908 37.05 101.908 38.4369C101.908 38.5767 101.904 38.7164 101.908 38.8526C101.915 39.0533 101.822 39.1357 101.625 39.1285C101.399 39.1214 101.173 39.1178 100.947 39.1285C100.7 39.1429 100.607 39.0497 100.61 38.7988C100.621 37.971 100.614 37.136 100.614 36.3046Z" fill="white"/>
<path d="M101.977 32.4506C101.97 32.834 101.647 33.1458 101.275 33.1422C100.884 33.135 100.565 32.8089 100.572 32.4183C100.579 32.0241 100.902 31.7088 101.292 31.7159C101.676 31.7195 101.984 32.0492 101.977 32.4506Z" fill="white"/>
</g>
<defs>
<clipPath id="clip0_13917_52410">
<rect width="125" height="41.6667" fill="white"/>
</clipPath>
</defs>
</svg>
