<svg width="153" height="51" viewBox="0 0 153 51" fill="none" xmlns="http://www.w3.org/2000/svg">
<path fill-rule="evenodd" clip-rule="evenodd" d="M28.0581 32.7337V15.3605C28.0581 14.7982 28.2514 14.3194 28.6379 13.9241C29.0245 13.5287 29.4945 13.3311 30.0524 13.3311H31.994V20.5483H39.8613V13.3311H43.8455V32.7293H39.8613V24.0976H31.994V32.7293H28.0581V32.7337Z" fill="#D42027"/>
<path fill-rule="evenodd" clip-rule="evenodd" d="M45.8049 32.7337V15.3605C45.8049 14.7982 46.0026 14.3194 46.398 13.9241C46.7933 13.5287 47.2721 13.3311 47.8344 13.3311H52.7498C55.7149 13.3311 57.9332 14.1174 59.396 15.6943C60.8632 17.346 61.5967 19.7971 61.5967 23.0258C61.5967 24.7565 61.3332 26.3203 60.8104 27.7084C60.2042 29.136 59.4223 30.2342 58.4384 30.981C57.6125 31.6223 56.7296 32.0748 55.7896 32.3383C54.8847 32.5975 53.5185 32.7337 51.678 32.7337H45.8049ZM49.6969 29.2327H52.2359C54.0764 29.2327 55.4338 28.7451 56.2947 27.7655C57.1206 26.865 57.5335 25.2836 57.5335 23.0258C57.5335 20.8514 57.1425 19.248 56.3518 18.2377C55.6007 17.2186 54.3971 16.7134 52.7542 16.7134H49.7013V29.2327H49.6969Z" fill="#D42027"/>
<path fill-rule="evenodd" clip-rule="evenodd" d="M63.5381 32.7337V15.3605C63.5381 14.7983 63.7314 14.3195 64.1267 13.9241C64.5221 13.5288 64.9921 13.3311 65.5543 13.3311H72.609C74.5858 13.3267 76.1056 13.7396 77.1467 14.5698C78.1922 15.4747 78.7193 16.6959 78.7193 18.2377C78.7193 19.2129 78.5085 20.0432 78.1043 20.7196C77.687 21.3522 77.1116 21.8705 76.3648 22.2395C77.3356 22.6524 78.0824 23.2367 78.6051 23.9834C79.0839 24.7082 79.3299 25.6483 79.3299 26.8123C79.3299 28.6924 78.7369 30.1552 77.5377 31.205C76.3033 32.2198 74.5682 32.7337 72.3279 32.7337H63.5381ZM67.351 20.8295H71.8842C72.855 20.8295 73.5623 20.6625 74.0103 20.3199C74.454 19.9817 74.6868 19.4545 74.6868 18.7429C74.6868 18.0269 74.4584 17.5042 74.0103 17.1659C73.6369 16.8628 72.9121 16.7135 71.8271 16.7135H67.3466V20.8295H67.351ZM67.351 29.2327H72.0512C73.101 29.2327 73.9005 29.0219 74.4584 28.6089C74.9811 28.2356 75.2447 27.5986 75.2447 26.6893C75.2447 25.7888 74.9811 25.1299 74.4584 24.717C73.9752 24.3392 73.1537 24.146 71.9985 24.146H67.3554V29.2327H67.351Z" fill="#4B4B4A"/>
<path fill-rule="evenodd" clip-rule="evenodd" d="M109.785 32.7332H107.786C107.215 32.7332 106.749 32.5531 106.385 32.1973C106.025 31.8415 105.845 31.3759 105.845 30.8136V22.7618C105.845 21.8569 105.568 21.2024 105.014 20.7851C104.461 20.3721 103.841 20.1613 103.156 20.1613C102.471 20.1613 101.86 20.3721 101.329 20.7851C100.793 21.2024 100.525 21.8525 100.525 22.7618V32.7332H96.5232V23.5481C96.5232 20.9959 97.1997 19.2828 98.5526 18.413C99.9056 17.552 101.399 17.082 103.042 17.0029C104.716 17.0029 106.262 17.4422 107.668 18.3032C109.086 19.1641 109.785 20.9124 109.785 23.5481V32.7332Z" fill="#4B4B4A"/>
<path fill-rule="evenodd" clip-rule="evenodd" d="M92.8551 18.0747C91.7525 17.3499 90.1008 16.9941 87.8913 16.9941C85.9234 16.9941 84.4123 17.429 83.3448 18.2988C82.4004 19.0543 81.8469 20.0207 81.6976 21.198H85.651C85.8487 20.7807 86.1606 20.4951 86.5955 20.3414C87.0303 20.192 87.5223 20.1174 88.0758 20.1174C88.5854 20.1174 89.1432 20.2052 89.7582 20.3721C90.3688 20.5434 90.6719 20.908 90.6719 21.4791C90.6719 22.2346 89.8065 22.7266 88.0758 22.955C87.7156 22.9946 87.3993 23.0341 87.127 23.0956C86.8502 23.1483 86.613 23.1791 86.411 23.1791C84.9174 23.4031 83.6875 23.8643 82.7211 24.5408C81.7547 25.2217 81.2715 26.3594 81.2715 27.9496C81.2715 29.6583 81.8074 30.8707 82.8704 31.6131C83.9291 32.3555 85.1722 32.7244 86.5867 32.7244C88.2735 32.7244 89.8197 32.5751 91.2122 31.6526C91.2913 31.8723 91.4055 32.0699 91.5592 32.2412C91.8799 32.5971 92.2928 32.7772 92.7936 32.7772H94.5638V26.4165V26.2891V21.2463C94.5682 19.8889 93.9972 18.8303 92.8551 18.0747ZM90.7246 26.254C90.7246 27.3126 90.4127 28.1472 89.7802 28.7534C89.1476 29.3596 88.2823 29.6671 87.1841 29.6671C86.512 29.6671 86.0024 29.5134 85.6466 29.2059C85.2952 28.872 85.1195 28.4196 85.1195 27.8485C85.1195 27.4312 85.2513 27.0095 85.528 26.5966C85.8487 26.2935 86.3539 26.0519 87.0655 25.863L88.4272 25.5775C89.4112 25.3491 90.1799 25.1031 90.729 24.8395V26.254H90.7246Z" fill="#4B4B4A"/>
<path fill-rule="evenodd" clip-rule="evenodd" d="M115.636 17.7277V22.9857L120.358 16.9985H125.023L119.743 23.4821L125.076 32.7376H120.406L117.692 27.6596C117.134 26.6449 116.651 26.2144 116.242 26.3681C115.834 26.5175 115.631 26.7415 115.631 27.0358V29.1268V32.7376H111.744V13.335H113.747C114.261 13.335 114.705 13.5238 115.078 13.8972C115.447 14.2794 115.631 14.7099 115.631 15.1975V17.7277H115.636Z" fill="#4B4B4A"/>
<mask id="mask0_13917_52449" style="mask-type:luminance" maskUnits="userSpaceOnUse" x="125" y="0" width="10" height="10">
<path d="M125.124 7.22498C125.124 8.63943 126.051 9.09188 127.557 9.13581C129.227 9.18413 131.932 8.90739 134.243 8.52522C134.287 8.52522 134.283 8.49008 134.261 8.48129C130.518 7.12834 131.291 0.675444 131.177 0.244958C130.804 -1.1651 125.124 3.82502 125.124 7.22498Z" fill="white"/>
</mask>
<g mask="url(#mask0_13917_52449)">
<path d="M138.254 7.33097L132.653 -4.67871L121.162 0.680404L126.767 12.6945L138.254 7.33097Z" fill="url(#paint0_linear_13917_52449)"/>
</g>
<mask id="mask1_13917_52449" style="mask-type:luminance" maskUnits="userSpaceOnUse" x="129" y="6" width="24" height="18">
<path d="M152.368 6.15865C149.956 7.21729 139.993 10.5997 129.974 10.9247C130.36 16.7056 134.155 23.0398 137.252 23.0398C145.115 23.0398 151.432 9.932 152.759 7.12505C153.273 6.08837 152.882 5.93462 152.368 6.15865Z" fill="white"/>
</mask>
<g mask="url(#mask1_13917_52449)">
<path d="M127.048 22.5262L152.574 27.0287L156.198 6.44882L130.676 1.94629L127.048 22.5262Z" fill="url(#paint1_linear_13917_52449)"/>
</g>
<path d="M109.719 45.6084C109.442 46.2761 109.157 46.9394 108.889 47.6115C108.788 47.8619 108.643 47.9761 108.361 47.9717C107.61 47.9717 107.619 48.0332 107.285 47.2469C106.459 45.2922 105.651 43.3286 104.781 41.3695C104.777 41.4749 104.777 41.756 104.777 41.8615C104.777 43.7986 104.768 45.4108 104.768 47.348C104.768 47.695 104.663 47.9673 104.298 47.9673C102.849 47.9673 102.994 48.0025 102.994 46.834C102.994 44.2467 102.994 41.5056 102.994 38.9227C102.994 38.4835 103.015 38.4659 103.437 38.4659C103.833 38.4659 104.223 38.4615 104.619 38.4659C105.199 38.4703 105.554 38.7119 105.774 39.2478C106.538 41.1147 108.107 44.9451 108.159 45.0594C108.357 44.5805 110.031 40.5085 110.672 38.892C110.795 38.5757 110.962 38.4439 111.309 38.4615C111.849 38.4879 112.394 38.4791 112.934 38.4659C113.207 38.4571 113.316 38.545 113.316 38.8305C113.312 41.756 113.312 44.4971 113.316 47.427C113.316 47.7038 113.163 47.9454 112.877 47.9673C112.671 47.9673 112.556 47.9849 112.363 47.9761C111.704 47.9585 111.59 47.818 111.564 47.2952C111.559 47.1986 111.559 46.9965 111.559 46.8999C111.559 45.178 111.559 43.4516 111.559 41.7297C111.559 41.6199 111.559 41.5057 111.559 41.3958C111.537 41.3783 110.307 44.1984 109.719 45.6084Z" fill="#4B4B4A"/>
<path d="M34.4979 44.8133C34.4979 44.7035 34.4979 44.5893 34.4979 44.4794C34.4979 42.6257 34.4979 40.7764 34.4979 38.9227C34.4979 38.5932 34.5243 38.4658 34.946 38.4658C35.2315 38.4658 35.5214 38.4658 35.8069 38.4658C36.2462 38.4658 36.2858 38.5844 36.2594 38.9139C36.2594 41.6066 36.2594 44.2993 36.2594 46.9921C36.2594 47.2029 36.2594 47.4182 36.2594 47.629C36.2594 47.8311 36.154 47.9585 35.9124 47.9672C35.6796 47.9585 35.4951 47.9848 35.2095 47.9672C34.6912 47.976 34.3661 47.7915 34.0806 47.3918C32.754 45.5293 31.4098 43.68 30.0745 41.8218C29.991 41.7032 29.8812 41.5451 29.7494 41.4089C29.7494 41.5187 29.7494 41.6989 29.7494 41.8131C29.7494 43.6975 29.7494 45.4678 29.7494 47.3523C29.7494 47.7564 29.6572 47.9321 29.2311 47.9672C29.0729 47.9672 28.9104 47.9716 28.7522 47.9629C28.2647 47.9365 28.0099 47.6817 28.0055 47.1941C27.9967 46.3551 28.0011 45.5117 28.0011 44.6727C28.0011 42.7575 28.0011 40.8423 28.0011 38.927C27.9923 38.58 28.0846 38.4702 28.4404 38.4702C29.8372 38.457 29.7538 38.4482 30.5401 39.5288C31.77 41.2244 33.0088 42.9156 34.2431 44.6068C34.3002 44.6859 34.3574 44.7562 34.4189 44.8353C34.4496 44.8616 34.4891 44.8616 34.4979 44.8133Z" fill="#4B4B4A"/>
<path d="M59.2686 46.6846C58.8206 47.3523 58.2847 47.7959 57.5643 47.998C56.6418 48.2572 55.649 48.0771 54.8803 47.506C53.8612 46.7505 53.4351 45.4239 53.5537 44.1939C53.6679 43.0079 54.3181 41.9185 55.3811 41.3518C56.5056 40.75 57.942 40.7368 59.0666 41.3518C59.7738 41.7384 60.3405 42.3621 60.6084 43.1221C60.8149 43.7063 60.8105 44.3125 60.8324 44.9231C60.8676 45.8851 60.8983 46.8471 60.8193 47.8047C60.6875 49.43 59.6508 50.4316 58.0343 50.7171C56.9756 50.9016 55.9565 50.7874 55.0121 50.2251C54.4542 49.8913 54.0633 49.4125 53.8129 48.815C53.7294 48.6218 53.7997 48.5119 54.0018 48.4944C54.2697 48.4724 54.5684 48.4724 54.8364 48.5075C55.1571 48.5471 55.4162 48.6701 55.6622 48.8765C55.895 49.0742 56.1103 49.3026 56.3958 49.43C56.8834 49.6453 57.4369 49.6057 57.9376 49.4476C58.7064 49.1972 59.1369 48.6174 59.2599 47.8355C59.3126 47.4884 59.2686 47.1195 59.2686 46.6846ZM55.1087 44.3872C55.1131 45.2262 55.3196 45.8456 55.8819 46.3024C56.778 47.0272 58.1661 46.8691 58.8513 45.9773C59.5937 45.0066 59.418 43.3813 58.478 42.7004C57.7707 42.1864 56.9888 42.1469 56.2201 42.5291C55.4031 42.9244 55.1131 43.6536 55.1087 44.3872Z" fill="#4B4B4A"/>
<path d="M75.2446 42.2613C75.7059 41.7166 76.1715 41.3432 76.7469 41.1236C77.4893 40.8381 78.2449 40.8117 78.9916 41.0797C79.9317 41.4135 80.2875 42.2042 80.3402 43.1047C80.4192 44.4708 80.4105 45.8457 80.4324 47.2163C80.4456 48.0245 80.3973 48.0597 79.589 47.9586C79.1322 47.9015 78.8818 47.6248 78.8774 47.1328C78.8774 46.3729 78.8862 45.6129 78.8774 44.853C78.8686 44.2556 78.8774 43.5923 78.6622 43.0256C78.4337 42.4238 77.8495 42.2525 77.2477 42.2876C77.1642 42.292 77.0808 42.3008 76.9973 42.3184C76.5097 42.4063 76.0617 42.6654 75.7454 43.0476C75.4379 43.421 75.2666 43.8954 75.2534 44.3786C75.2271 45.4328 75.2446 46.4871 75.2446 47.5369C75.2446 47.9411 75.2227 47.963 74.8054 47.963C74.5594 47.963 74.3134 47.9455 74.0718 47.9674C73.7555 47.9938 73.6676 47.8488 73.672 47.5545C73.6852 46.5881 73.6764 45.6173 73.6764 44.6509C73.6764 42.7884 73.6764 40.9259 73.6764 39.0634C73.6764 38.4572 73.6764 38.4572 74.2958 38.4616C74.3485 38.4616 74.4012 38.4616 74.4539 38.4616C74.9503 38.488 75.2358 38.7779 75.2446 39.2786C75.2534 40.1176 75.249 40.9611 75.249 41.8001C75.2446 41.9231 75.2446 42.0373 75.2446 42.2613Z" fill="#4B4B4A"/>
<path d="M69.5123 40.0208C69.5123 40.1834 69.5123 40.3064 69.5123 40.4338C69.5123 42.6038 69.5123 44.7738 69.5123 46.9438C69.5123 47.7564 69.3014 47.9673 68.4932 47.9673C67.6761 47.9673 67.7596 48.0331 67.7596 47.2293C67.7596 44.9758 67.7596 42.718 67.7596 40.4645C67.7596 40.3371 67.7596 40.2097 67.7596 40.0472C67.6278 40.0384 67.518 40.0252 67.4038 40.0252C66.5648 40.0252 65.7214 40.0165 64.8824 40.0296C64.5968 40.034 64.5002 39.9242 64.5134 39.6562C64.5266 39.4542 64.509 39.2521 64.5178 39.0501C64.531 38.624 64.6803 38.479 65.1064 38.4746C65.6072 38.4702 66.1079 38.4746 66.6043 38.4746C68.5064 38.4746 70.4128 38.4746 72.3148 38.4746C72.7541 38.4746 72.7761 38.6371 72.7761 39.0896C72.7761 39.3136 72.7629 39.3971 72.7805 39.6167C72.8024 39.9154 72.6882 40.0384 72.3763 40.0296C71.5461 40.0165 70.7159 40.0252 69.8857 40.0252C69.7759 40.0208 69.6616 40.0208 69.5123 40.0208Z" fill="#4B4B4A"/>
<path d="M96.7692 45.6969C96.7692 46.3339 96.7604 46.9752 96.7736 47.6121C96.778 47.8757 96.6681 47.9636 96.4134 47.9723C95.3855 47.9943 95.2054 47.823 95.2054 46.7863C95.2054 45.9473 95.2229 45.1039 95.1966 44.2649C95.1878 43.9179 95.1527 43.5533 95.0253 43.237C94.7222 42.4859 93.8832 42.1476 92.9212 42.3277C92.1437 42.4771 91.6077 43.0525 91.5902 43.8564C91.5594 45.0776 91.577 46.3031 91.5726 47.5243C91.5726 47.9372 91.5462 47.9636 91.1421 47.9636C90.8654 47.9636 90.5886 47.9592 90.3119 47.9636C90.1186 47.968 90.0044 47.8977 90.0088 47.6868C90.0176 46.3251 89.9824 44.9633 90.0527 43.6016C90.1186 42.3716 90.7819 41.5107 91.9679 41.1197C93.0485 40.7639 94.1335 40.7903 95.1702 41.2691C96.2377 41.761 96.6901 42.6835 96.756 43.8081C96.7911 44.4318 96.7604 45.0644 96.7604 45.6925C96.7648 45.6969 96.7648 45.6969 96.7692 45.6969Z" fill="#4B4B4A"/>
<path d="M45.8265 43.7371C45.91 42.2348 46.7929 41.2596 48.2777 40.9829C49.2353 40.8072 50.1665 40.8687 51.0451 41.3123C52.0159 41.8087 52.4903 42.6521 52.5298 43.7108C52.5737 45.0154 52.5474 46.3288 52.5562 47.6335C52.5562 47.8619 52.4639 47.9497 52.2355 47.9629C50.9792 47.9629 51.0451 47.9805 51.0451 46.9218C51.0451 46.0477 51.0275 45.0681 50.9924 44.1632C50.9792 42.6302 49.6087 41.7955 48.2337 42.4896C47.6144 42.8015 47.3772 43.3506 47.3684 44.0095C47.3596 45.1779 47.364 46.3156 47.364 47.4841C47.364 47.9014 47.2498 47.9541 46.9379 47.9629C46.6831 47.9629 46.4415 47.9673 46.1736 47.9673C45.888 47.9673 45.7914 47.8706 45.7958 47.5983C45.8046 46.9394 45.8002 46.2805 45.8002 45.6216C45.8046 45.6172 45.7914 44.3609 45.8265 43.7371Z" fill="#4B4B4A"/>
<path d="M85.3041 48.1478C84.4036 48.1741 83.4943 47.915 82.7739 47.3703C82.4752 47.1419 82.2116 46.8695 82.0008 46.5576C81.3419 45.578 81.2189 44.2295 81.6581 43.1357C81.9876 42.3186 82.6245 41.6378 83.4284 41.282C84.6101 40.7549 86.0553 40.7373 87.2017 41.3698C88.2253 41.9365 88.9149 43.0171 89.0072 44.1812C89.1126 45.455 88.5767 46.7245 87.5136 47.4493C87.1534 47.6953 86.7537 47.8798 86.332 47.994C85.9938 48.0863 85.6467 48.139 85.3041 48.1478ZM85.2075 42.2923C83.8809 42.2923 82.9847 43.184 82.976 44.5106C82.9672 45.8416 83.8853 46.7685 85.2119 46.7685C86.5385 46.7685 87.4477 45.846 87.439 44.5062C87.4346 43.1796 86.5385 42.2923 85.2075 42.2923Z" fill="#4B4B4A"/>
<path d="M87.2544 40.5565C86.6658 40.6575 86.2704 40.6048 85.9146 40.1567C85.695 39.8712 85.4578 39.5462 85.2074 39.2299C84.979 39.5462 84.8165 39.779 84.5573 40.148C84.2234 40.6751 83.7007 40.6487 83.1868 40.5741C83.2483 40.4906 83.9599 39.3968 84.2805 38.896C84.4035 38.7291 84.5221 38.5929 84.856 38.5578C84.8736 38.549 84.8999 38.5534 84.9175 38.5534C85.8927 38.5271 85.8971 38.5271 86.4286 39.3177C86.6922 39.7131 86.9557 40.104 87.2544 40.5565Z" fill="#4B4B4A"/>
<path d="M41.1442 48.1478C40.2437 48.1741 39.3344 47.915 38.614 47.3703C38.3153 47.1419 38.0517 46.8695 37.8409 46.5576C37.182 45.578 37.059 44.2295 37.4982 43.1357C37.8277 42.3186 38.4646 41.6378 39.2685 41.282C40.4501 40.7549 41.8953 40.7373 43.0418 41.3698C44.0653 41.9365 44.755 43.0171 44.8472 44.1812C44.9527 45.455 44.4168 46.7245 43.3537 47.4493C42.9935 47.6953 42.5938 47.8798 42.1721 47.994C41.8339 48.0863 41.4912 48.139 41.1442 48.1478ZM41.0476 42.2923C39.721 42.2923 38.8248 43.184 38.8161 44.5106C38.8073 45.8416 39.7253 46.7685 41.0519 46.7685C42.3785 46.7685 43.2878 45.846 43.279 44.5062C43.2747 43.1796 42.3785 42.2923 41.0476 42.2923Z" fill="#4B4B4A"/>
<path d="M43.0989 40.5565C42.5103 40.6575 42.1149 40.6048 41.7591 40.1567C41.5395 39.8712 41.3023 39.5462 41.0519 39.2299C40.8235 39.5462 40.6609 39.779 40.4018 40.148C40.0679 40.6751 39.5452 40.6487 39.0312 40.5741C39.0927 40.4906 39.8044 39.3968 40.125 38.896C40.248 38.7291 40.3666 38.5929 40.7005 38.5578C40.718 38.549 40.7444 38.5534 40.762 38.5534C41.7372 38.5271 41.7415 38.5271 42.2731 39.3177C42.5322 39.7131 42.7958 40.104 43.0989 40.5565Z" fill="#4B4B4A"/>
<path d="M120.564 41.6111C120.753 41.3124 120.933 41.0357 121.144 40.7062C121.083 40.8029 120.555 40.6228 120.476 40.57C120.261 40.4295 120.164 40.144 120.182 39.8936C120.2 39.6344 120.349 39.3884 120.569 39.2566C121.003 38.9887 121.596 39.2039 121.79 39.6695C122.075 40.3504 121.847 40.961 121.487 41.5365C121.368 41.7209 121.214 41.8835 121.065 42.068C121.368 42.3579 121.667 42.9948 121.711 43.0915C122.075 43.97 122.093 45.0111 121.737 45.894C121.17 47.2909 119.844 48.0508 118.377 48.1255C117.107 48.1914 115.855 47.7126 115.056 46.7067C114.168 45.5865 114.151 43.9085 114.84 42.6873C115.684 41.207 117.437 40.6667 119.04 41.0005C119.246 41.0445 119.448 41.1016 119.646 41.1719C119.875 41.2509 120.099 41.352 120.309 41.4662C120.336 41.475 120.569 41.6111 120.564 41.6111ZM115.943 44.4796C115.925 45.8062 116.813 46.7462 118.113 46.7682C119.457 46.7901 120.397 45.8808 120.415 44.5367C120.432 43.2408 119.528 42.3096 118.236 42.292C116.87 42.2744 115.961 43.1486 115.943 44.4796Z" fill="#4B4B4A"/>
<path d="M119.682 38.6677C118.996 39.2695 118.324 39.8888 117.617 40.4687C117.279 40.7498 116.857 40.6048 116.431 40.5302C116.58 40.372 117.586 39.3398 117.92 38.9752C118.184 38.6896 118.487 38.5447 118.878 38.5666C119.137 38.5798 119.673 38.6325 119.682 38.6677Z" fill="#4B4B4A"/>
<path d="M123.103 44.5015C123.103 43.5 123.103 42.5028 123.103 41.5013C123.103 41.1191 123.139 41.0884 123.529 41.084C123.604 41.084 123.679 41.084 123.754 41.084C124.417 41.0884 124.689 41.3519 124.689 42.0108C124.689 43.7108 124.689 45.4152 124.689 47.1152C124.689 47.2865 124.685 47.4578 124.689 47.6247C124.698 47.8707 124.584 47.9718 124.342 47.963C124.065 47.9542 123.789 47.9498 123.512 47.963C123.209 47.9805 123.095 47.8663 123.099 47.5588C123.112 46.5441 123.103 45.5206 123.103 44.5015Z" fill="#4B4B4A"/>
<path d="M124.773 39.7796C124.764 40.2496 124.369 40.6317 123.912 40.6273C123.433 40.6186 123.042 40.2188 123.051 39.74C123.059 39.2568 123.455 38.8703 123.934 38.8791C124.404 38.8834 124.781 39.2876 124.773 39.7796Z" fill="#4B4B4A"/>
<defs>
<linearGradient id="paint0_linear_13917_52449" x1="132.305" y1="9.57388" x2="127.019" y2="-1.76118" gradientUnits="userSpaceOnUse">
<stop stop-color="#F4A51D"/>
<stop offset="0.2" stop-color="#F9C013"/>
<stop offset="0.45" stop-color="#FEDC00"/>
<stop offset="1" stop-color="#FEDC00"/>
</linearGradient>
<linearGradient id="paint1_linear_13917_52449" x1="126.702" y1="11.8549" x2="154.197" y2="16.703" gradientUnits="userSpaceOnUse">
<stop stop-color="#F4A51D"/>
<stop offset="0.5" stop-color="#FEDC00"/>
<stop offset="1" stop-color="#FEDC00"/>
</linearGradient>
</defs>
</svg>
