<svg width="114" height="38" viewBox="0 0 114 38" fill="none" xmlns="http://www.w3.org/2000/svg">
<path fill-rule="evenodd" clip-rule="evenodd" d="M21.0427 24.3546V11.4306C21.0427 11.0123 21.1865 10.6561 21.4741 10.362C21.7617 10.0679 22.1114 9.9209 22.5265 9.9209H23.9711V15.2898H29.8245V9.9209H32.7888V24.3513H29.8245V17.9302H23.9711V24.3513H21.0427V24.3546Z" fill="white"/>
<path fill-rule="evenodd" clip-rule="evenodd" d="M34.2478 24.3546V11.4306C34.2478 11.0123 34.3949 10.6561 34.689 10.362C34.9832 10.0679 35.3394 9.9209 35.7577 9.9209H39.4149C41.621 9.9209 43.2714 10.5058 44.3598 11.679C45.4514 12.9076 45.9972 14.731 45.9972 17.1328C45.9972 18.4203 45.8011 19.5836 45.4121 20.6163C44.9611 21.6783 44.3794 22.4952 43.6473 23.0507C43.0329 23.5278 42.3759 23.8644 41.6765 24.0605C41.0033 24.2533 39.9868 24.3546 38.6175 24.3546H34.2478ZM37.1435 21.7502H39.0325C40.4019 21.7502 41.4118 21.3874 42.0524 20.6587C42.6668 19.9888 42.974 18.8125 42.974 17.1328C42.974 15.5153 42.6832 14.3226 42.0949 13.571C41.536 12.8129 40.6405 12.4371 39.4182 12.4371H37.1467V21.7502H37.1435Z" fill="white"/>
<path fill-rule="evenodd" clip-rule="evenodd" d="M47.4407 24.3546V11.4306C47.4407 11.0124 47.5845 10.6562 47.8786 10.3621C48.1728 10.068 48.5225 9.92092 48.9408 9.92092H54.1896C55.6603 9.91766 56.7911 10.2248 57.5657 10.8424C58.3436 11.5156 58.7357 12.424 58.7357 13.571C58.7357 14.2964 58.5789 14.9141 58.2782 15.4173C57.9677 15.8878 57.5396 16.2734 56.984 16.5479C57.7063 16.8551 58.2619 17.2897 58.6508 17.8452C59.007 18.3844 59.19 19.0837 59.19 19.9497C59.19 21.3483 58.7488 22.4364 57.8566 23.2174C56.9382 23.9723 55.6473 24.3546 53.9804 24.3546H47.4407ZM50.2775 15.499H53.6503C54.3726 15.499 54.8988 15.3748 55.2322 15.1199C55.5623 14.8683 55.7355 14.4762 55.7355 13.9468C55.7355 13.4142 55.5655 13.0253 55.2322 12.7737C54.9544 12.5482 54.4151 12.4371 53.6079 12.4371H50.2743V15.499H50.2775ZM50.2775 21.7502H53.7745C54.5557 21.7502 55.1505 21.5933 55.5655 21.2862C55.9545 21.0084 56.1506 20.5346 56.1506 19.8582C56.1506 19.1883 55.9545 18.6981 55.5655 18.3909C55.206 18.1099 54.5949 17.9661 53.7353 17.9661H50.2808V21.7502H50.2775Z" fill="white"/>
<path fill-rule="evenodd" clip-rule="evenodd" d="M81.8505 24.3532H80.3634C79.9386 24.3532 79.5921 24.2192 79.3209 23.9545C79.0529 23.6898 78.9189 23.3435 78.9189 22.9252V16.9354C78.9189 16.2622 78.713 15.7753 78.3012 15.4649C77.8894 15.1577 77.4285 15.0009 76.9187 15.0009C76.4089 15.0009 75.9546 15.1577 75.5591 15.4649C75.1604 15.7753 74.961 16.259 74.961 16.9354V24.3532H71.9836V17.5203C71.9836 15.6218 72.487 14.3473 73.4936 13.7003C74.5002 13.0598 75.6114 12.7102 76.8337 12.6514C78.0789 12.6514 79.2294 12.9781 80.2752 13.6186C81.3308 14.2591 81.8505 15.5597 81.8505 17.5203V24.3532Z" fill="white"/>
<path fill-rule="evenodd" clip-rule="evenodd" d="M69.2536 13.4503C68.4333 12.9112 67.2044 12.6465 65.5605 12.6465C64.0963 12.6465 62.9721 12.97 62.1779 13.617C61.4752 14.1791 61.0634 14.898 60.9523 15.7737H63.8937C64.0408 15.4633 64.2728 15.2509 64.5964 15.1365C64.9199 15.0254 65.286 14.9699 65.6978 14.9699C66.0769 14.9699 66.492 15.0352 66.9495 15.1594C67.4038 15.2868 67.6293 15.558 67.6293 15.9829C67.6293 16.5449 66.9855 16.9109 65.6978 17.0808C65.4298 17.1102 65.1945 17.1396 64.9918 17.1854C64.7859 17.2246 64.6095 17.2475 64.4591 17.2475C63.3479 17.4141 62.4328 17.7572 61.7138 18.2605C60.9948 18.767 60.6353 19.6133 60.6353 20.7963C60.6353 22.0674 61.034 22.9693 61.8249 23.5216C62.6126 24.0738 63.5375 24.3483 64.5898 24.3483C65.8448 24.3483 66.9953 24.2372 68.0313 23.551C68.0901 23.7144 68.1751 23.8614 68.2895 23.9889C68.5281 24.2535 68.8353 24.3875 69.2079 24.3875H70.525V19.6558V19.561V15.8097C70.5283 14.7999 70.1034 14.0124 69.2536 13.4503ZM67.6685 19.5349C67.6685 20.3224 67.4365 20.9433 66.9659 21.3943C66.4952 21.8452 65.8514 22.074 65.0343 22.074C64.5343 22.074 64.1552 21.9596 63.8904 21.7308C63.629 21.4825 63.4982 21.1459 63.4982 20.7211C63.4982 20.4107 63.5963 20.097 63.8022 19.7898C64.0408 19.5643 64.4166 19.3846 64.9461 19.2441L65.9592 19.0317C66.6913 18.8618 67.2633 18.6788 67.6718 18.4827V19.5349H67.6685Z" fill="white"/>
<path fill-rule="evenodd" clip-rule="evenodd" d="M86.2045 13.1906V17.1021L89.7179 12.6482H93.1888L89.2603 17.4714L93.228 24.3565H89.7538L87.734 20.579C87.319 19.8241 86.9595 19.5039 86.6555 19.6183C86.3516 19.7294 86.2012 19.896 86.2012 20.115V21.6704V24.3565H83.3088V9.92285H84.7992C85.1815 9.92285 85.5116 10.0634 85.7894 10.3411C86.064 10.6254 86.2012 10.9457 86.2012 11.3084V13.1906H86.2045Z" fill="white"/>
<mask id="mask0_13917_52293" style="mask-type:luminance" maskUnits="userSpaceOnUse" x="93" y="0" width="8" height="7">
<path d="M93.2629 5.37468C93.2629 6.4269 93.9525 6.76348 95.0735 6.79616C96.3155 6.8321 98.3287 6.62623 100.048 6.34194C100.081 6.34194 100.077 6.3158 100.061 6.30926C97.2763 5.30279 97.8516 0.502465 97.7666 0.182225C97.4888 -0.866724 93.2629 2.84544 93.2629 5.37468Z" fill="white"/>
</mask>
<g mask="url(#mask0_13917_52293)">
<path d="M103.032 5.44869L98.8649 -3.48535L90.3152 0.501311L94.4855 9.43861L103.032 5.44869Z" fill="white"/>
</g>
<mask id="mask1_13917_52293" style="mask-type:luminance" maskUnits="userSpaceOnUse" x="96" y="4" width="18" height="14">
<path d="M113.529 4.58304C111.735 5.37057 104.323 7.88674 96.8679 8.12856C97.1555 12.4289 99.9793 17.141 102.283 17.141C108.134 17.141 112.833 7.39005 113.82 5.30195C114.203 4.53076 113.912 4.41639 113.529 4.58304Z" fill="white"/>
</mask>
<g mask="url(#mask1_13917_52293)">
<path d="M94.6921 16.7557L113.684 20.1052L116.38 4.79574L97.3917 1.44629L94.6921 16.7557Z" fill="white"/>
</g>
<path d="M81.8019 33.9301C81.596 34.4268 81.3835 34.9202 81.1842 35.4202C81.109 35.6064 81.0011 35.6914 80.792 35.6881C80.2331 35.6881 80.2396 35.7339 79.9912 35.149C79.3768 33.6948 78.7755 32.2341 78.1283 30.7767C78.1251 30.8551 78.1251 31.0643 78.1251 31.1427C78.1251 32.5838 78.1185 33.783 78.1185 35.2241C78.1185 35.4823 78.0401 35.6849 77.7688 35.6849C76.6903 35.6849 76.7982 35.711 76.7982 34.8418C76.7982 32.9171 76.7982 30.878 76.7982 28.9566C76.7982 28.6298 76.8145 28.6167 77.1283 28.6167C77.4224 28.6167 77.7133 28.6135 78.0074 28.6167C78.4388 28.62 78.7036 28.7997 78.867 29.1984C79.4356 30.5872 80.6024 33.4367 80.6416 33.5216C80.7887 33.1654 82.0339 30.1362 82.5111 28.9337C82.6026 28.6984 82.7268 28.6004 82.985 28.6135C83.387 28.6331 83.7922 28.6265 84.1942 28.6167C84.3969 28.6102 84.4786 28.6755 84.4786 28.8879C84.4753 31.0643 84.4753 33.1033 84.4786 35.2829C84.4786 35.4888 84.3642 35.6685 84.1517 35.6849C83.9981 35.6849 83.9132 35.6979 83.7693 35.6914C83.2791 35.6783 83.1941 35.5738 83.1745 35.1849C83.1713 35.113 83.1713 34.9627 83.1713 34.8908C83.1713 33.6098 83.1713 32.3256 83.1713 31.0447C83.1713 30.963 83.1713 30.878 83.1713 30.7963C83.1549 30.7832 82.2398 32.8811 81.8019 33.9301Z" fill="white"/>
<path d="M25.8346 33.3391C25.8346 33.2574 25.8346 33.1724 25.8346 33.0907C25.8346 31.7117 25.8346 30.336 25.8346 28.957C25.8346 28.7119 25.8542 28.6172 26.1679 28.6172C26.3804 28.6172 26.5961 28.6172 26.8085 28.6172C27.1353 28.6172 27.1647 28.7054 27.1451 28.9505C27.1451 30.9536 27.1451 32.9568 27.1451 34.9599C27.1451 35.1167 27.1451 35.2769 27.1451 35.4337C27.1451 35.584 27.0667 35.6788 26.8869 35.6853C26.7137 35.6788 26.5765 35.6984 26.364 35.6853C25.9784 35.6919 25.7365 35.5546 25.5241 35.2573C24.5371 33.8717 23.537 32.496 22.5434 31.1137C22.4813 31.0255 22.3996 30.9079 22.3016 30.8066C22.3016 30.8883 22.3016 31.0223 22.3016 31.1072C22.3016 32.5091 22.3016 33.826 22.3016 35.2278C22.3016 35.5285 22.233 35.6592 21.9159 35.6853C21.7983 35.6853 21.6773 35.6886 21.5597 35.6821C21.1969 35.6625 21.0074 35.4729 21.0041 35.1102C20.9976 34.4861 21.0008 33.8587 21.0008 33.2345C21.0008 31.8098 21.0008 30.385 21.0008 28.9603C20.9943 28.7021 21.0629 28.6204 21.3276 28.6204C22.3669 28.6106 22.3048 28.6041 22.8899 29.408C23.805 30.6693 24.7266 31.9274 25.645 33.1855C25.6875 33.2443 25.73 33.2966 25.7757 33.3554C25.7986 33.375 25.828 33.375 25.8346 33.3391Z" fill="white"/>
<path d="M44.2637 34.7294C43.9303 35.2261 43.5316 35.5561 42.9956 35.7064C42.3093 35.8992 41.5706 35.7652 40.9987 35.3404C40.2405 34.7784 39.9234 33.7915 40.0117 32.8765C40.0967 31.9942 40.5804 31.1838 41.3713 30.7623C42.2079 30.3146 43.2767 30.3048 44.1133 30.7623C44.6395 31.0499 45.0611 31.5139 45.2605 32.0792C45.4141 32.5138 45.4108 32.9648 45.4272 33.419C45.4533 34.1346 45.4762 34.8503 45.4174 35.5626C45.3193 36.7717 44.548 37.5167 43.3453 37.7292C42.5576 37.8664 41.7994 37.7814 41.0967 37.3632C40.6817 37.1148 40.3908 36.7586 40.2045 36.3142C40.1424 36.1704 40.1947 36.0887 40.345 36.0757C40.5444 36.0593 40.7666 36.0593 40.966 36.0855C41.2046 36.1149 41.3974 36.2064 41.5804 36.36C41.7537 36.507 41.9138 36.6769 42.1262 36.7717C42.489 36.9318 42.9008 36.9024 43.2734 36.7848C43.8453 36.5985 44.1656 36.1672 44.2571 35.5855C44.2964 35.3274 44.2637 35.0529 44.2637 34.7294ZM41.1686 33.0203C41.1719 33.6445 41.3255 34.1052 41.7438 34.4451C42.4106 34.9842 43.4433 34.8666 43.9532 34.2032C44.5055 33.4811 44.3748 32.272 43.6754 31.7655C43.1492 31.3832 42.5674 31.3538 41.9955 31.6381C41.3876 31.9322 41.1719 32.4746 41.1686 33.0203Z" fill="white"/>
<path d="M56.1509 31.4404C56.494 31.0352 56.8405 30.7574 57.2686 30.594C57.8209 30.3816 58.3831 30.362 58.9387 30.5614C59.6381 30.8097 59.9028 31.3979 59.942 32.0678C60.0009 33.0841 59.9943 34.1069 60.0107 35.1264C60.0205 35.7277 59.9845 35.7538 59.3832 35.6787C59.0433 35.6362 58.857 35.4303 58.8537 35.0643C58.8537 34.499 58.8602 33.9337 58.8537 33.3683C58.8472 32.9239 58.8537 32.4305 58.6936 32.009C58.5236 31.5613 58.0889 31.4338 57.6412 31.46C57.5791 31.4633 57.517 31.4698 57.4549 31.4829C57.0921 31.5482 56.7588 31.741 56.5234 32.0253C56.2947 32.3031 56.1672 32.656 56.1574 33.0154C56.1378 33.7997 56.1509 34.584 56.1509 35.365C56.1509 35.6656 56.1345 35.6819 55.824 35.6819C55.641 35.6819 55.458 35.6688 55.2782 35.6852C55.0429 35.7048 54.9776 35.597 54.9808 35.378C54.9906 34.6591 54.9841 33.9369 54.9841 33.218C54.9841 31.8325 54.9841 30.447 54.9841 29.0615C54.9841 28.6105 54.9841 28.6105 55.4449 28.6138C55.4841 28.6138 55.5234 28.6138 55.5626 28.6138C55.9319 28.6334 56.1443 28.849 56.1509 29.2216C56.1574 29.8457 56.1541 30.4731 56.1541 31.0973C56.1509 31.1888 56.1509 31.2737 56.1509 31.4404Z" fill="white"/>
<path d="M51.8871 29.7747C51.8871 29.8957 51.8871 29.9871 51.8871 30.0819C51.8871 31.6962 51.8871 33.3105 51.8871 34.9247C51.8871 35.5293 51.7303 35.6861 51.1289 35.6861C50.521 35.6861 50.5831 35.7351 50.5831 35.1371C50.5831 33.4608 50.5831 31.7811 50.5831 30.1048C50.5831 30.01 50.5831 29.9153 50.5831 29.7944C50.4851 29.7878 50.4034 29.778 50.3184 29.778C49.6941 29.778 49.0666 29.7715 48.4424 29.7813C48.23 29.7846 48.1581 29.7029 48.1679 29.5035C48.1777 29.3532 48.1646 29.2029 48.1711 29.0526C48.1809 28.7356 48.2921 28.6278 48.6091 28.6245C48.9817 28.6212 49.3542 28.6245 49.7236 28.6245C51.1387 28.6245 52.5571 28.6245 53.9723 28.6245C54.2991 28.6245 54.3154 28.7454 54.3154 29.082C54.3154 29.2486 54.3056 29.3107 54.3187 29.4741C54.3351 29.6963 54.2501 29.7878 54.018 29.7813C53.4003 29.7715 52.7826 29.778 52.1649 29.778C52.0832 29.7747 51.9983 29.7747 51.8871 29.7747Z" fill="white"/>
<path d="M72.1648 33.9917C72.1648 34.4656 72.1582 34.9427 72.168 35.4166C72.1713 35.6127 72.0896 35.6781 71.9 35.6846C71.1353 35.701 71.0013 35.5735 71.0013 34.8022C71.0013 34.178 71.0144 33.5504 70.9947 32.9262C70.9882 32.668 70.9621 32.3968 70.8673 32.1614C70.6418 31.6026 70.0175 31.3509 69.3018 31.4849C68.7233 31.596 68.3246 32.0242 68.3115 32.6223C68.2886 33.5308 68.3017 34.4427 68.2984 35.3513C68.2984 35.6585 68.2788 35.6781 67.9781 35.6781C67.7722 35.6781 67.5664 35.6748 67.3605 35.6781C67.2166 35.6813 67.1317 35.6291 67.1349 35.4722C67.1415 34.459 67.1153 33.4459 67.1676 32.4327C67.2167 31.5176 67.7102 30.877 68.5926 30.5861C69.3966 30.3214 70.2038 30.341 70.9751 30.6973C71.7693 31.0633 72.1059 31.7496 72.155 32.5863C72.1811 33.0504 72.1582 33.521 72.1582 33.9884C72.1615 33.9917 72.1615 33.9917 72.1648 33.9917Z" fill="white"/>
<path d="M34.2637 32.5351C34.3258 31.4173 34.9827 30.6918 36.0874 30.4859C36.7999 30.3551 37.4927 30.4009 38.1464 30.731C38.8687 31.1003 39.2216 31.7278 39.2511 32.5155C39.2837 33.4861 39.2641 34.4633 39.2707 35.434C39.2707 35.604 39.202 35.6693 39.0321 35.6791C38.0974 35.6791 38.1464 35.6922 38.1464 34.9046C38.1464 34.2542 38.1333 33.5254 38.1072 32.8521C38.0974 31.7115 37.0777 31.0905 36.0547 31.6069C35.5939 31.8389 35.4174 32.2475 35.4109 32.7377C35.4043 33.6071 35.4076 34.4535 35.4076 35.3229C35.4076 35.6334 35.3226 35.6726 35.0906 35.6791C34.901 35.6791 34.7213 35.6824 34.5219 35.6824C34.3095 35.6824 34.2376 35.6105 34.2408 35.4079C34.2474 34.9176 34.2441 34.4274 34.2441 33.9372C34.2474 33.9339 34.2376 32.9992 34.2637 32.5351Z" fill="white"/>
<path d="M63.6358 35.8233C62.9658 35.8429 62.2893 35.6501 61.7533 35.2448C61.5311 35.0748 61.335 34.8722 61.1781 34.6402C60.6878 33.9113 60.5963 32.908 60.9232 32.0942C61.1683 31.4863 61.6422 30.9797 62.2403 30.715C63.1194 30.3228 64.1947 30.3097 65.0477 30.7804C65.8092 31.202 66.3223 32.006 66.3909 32.872C66.4694 33.8198 66.0707 34.7644 65.2797 35.3036C65.0117 35.4866 64.7143 35.6239 64.4006 35.7089C64.1489 35.7775 63.8907 35.8167 63.6358 35.8233ZM63.5639 31.4667C62.5769 31.4667 61.9102 32.1301 61.9036 33.1172C61.8971 34.1074 62.5802 34.797 63.5672 34.797C64.5542 34.797 65.2307 34.1107 65.2242 33.1139C65.2209 32.1269 64.5542 31.4667 63.5639 31.4667Z" fill="white"/>
<path d="M65.0887 30.1707C64.6507 30.2459 64.3566 30.2067 64.0918 29.8733C63.9284 29.6609 63.7519 29.419 63.5657 29.1837C63.3957 29.419 63.2748 29.5922 63.0819 29.8668C62.8336 30.259 62.4446 30.2393 62.0623 30.1838C62.108 30.1217 62.6375 29.3079 62.876 28.9353C62.9676 28.8111 63.0558 28.7098 63.3042 28.6837C63.3173 28.6771 63.3369 28.6804 63.3499 28.6804C64.0755 28.6608 64.0788 28.6608 64.4742 29.2491C64.6703 29.5432 64.8664 29.8341 65.0887 30.1707Z" fill="white"/>
<path d="M30.7789 35.8164C30.1089 35.836 29.4324 35.6432 28.8964 35.238C28.6741 35.068 28.478 34.8654 28.3211 34.6333C27.8309 33.9045 27.7394 32.9012 28.0662 32.0874C28.3113 31.4795 28.7852 30.9729 29.3833 30.7082C30.2625 30.316 31.3377 30.3029 32.1908 30.7735C32.9523 31.1951 33.4654 31.9991 33.534 32.8652C33.6124 33.813 33.2137 34.7575 32.4228 35.2968C32.1548 35.4798 31.8574 35.6171 31.5436 35.7021C31.292 35.7707 31.0371 35.8099 30.7789 35.8164ZM30.707 31.4599C29.72 31.4599 29.0532 32.1233 29.0467 33.1103C29.0402 34.1006 29.7232 34.7902 30.7102 34.7902C31.6972 34.7902 32.3738 34.1039 32.3672 33.1071C32.364 32.12 31.6973 31.4599 30.707 31.4599Z" fill="white"/>
<path d="M32.2344 30.1668C31.7965 30.242 31.5023 30.2028 31.2376 29.8694C31.0742 29.657 30.8977 29.4151 30.7114 29.1798C30.5414 29.4151 30.4205 29.5883 30.2277 29.8629C29.9793 30.2551 29.5904 30.2354 29.208 30.1799C29.2538 30.1178 29.7832 29.304 30.0218 28.9314C30.1133 28.8072 30.2016 28.7059 30.4499 28.6798C30.463 28.6732 30.4826 28.6765 30.4957 28.6765C31.2213 28.6569 31.2245 28.6569 31.62 29.2452C31.8128 29.5393 32.0089 29.8302 32.2344 30.1668Z" fill="white"/>
<path d="M89.8706 30.9528C90.0111 30.7306 90.1451 30.5247 90.302 30.2796C90.2563 30.3515 89.8641 30.2176 89.8052 30.1783C89.6451 30.0738 89.5732 29.8614 89.5863 29.6751C89.5993 29.4823 89.7105 29.2993 89.8739 29.2013C90.1974 29.0019 90.6386 29.1621 90.7824 29.5085C90.9949 30.015 90.8249 30.4692 90.5569 30.8972C90.4687 31.0345 90.3543 31.1554 90.2432 31.2926C90.4687 31.5083 90.6909 31.9821 90.7236 32.054C90.9949 32.7076 91.008 33.482 90.7432 34.1389C90.3216 35.178 89.3346 35.7433 88.243 35.7989C87.2985 35.8479 86.367 35.4917 85.7722 34.7434C85.112 33.9101 85.099 32.6618 85.6121 31.7534C86.2396 30.6522 87.5436 30.2502 88.7365 30.4986C88.8901 30.5313 89.0405 30.5737 89.1875 30.626C89.3575 30.6848 89.5242 30.76 89.681 30.845C89.7007 30.8515 89.8739 30.9528 89.8706 30.9528ZM86.4324 33.0866C86.4193 34.0735 87.0795 34.7728 88.0469 34.7891C89.047 34.8055 89.7464 34.1291 89.7595 33.1291C89.7726 32.1651 89.0993 31.4724 88.1384 31.4593C87.122 31.4462 86.4455 32.0965 86.4324 33.0866Z" fill="white"/>
<path d="M89.2139 28.7662C88.7041 29.214 88.204 29.6748 87.6778 30.1062C87.4262 30.3154 87.1124 30.2075 86.7954 30.152C86.9065 30.0343 87.655 29.2663 87.9033 28.995C88.0994 28.7826 88.3249 28.6747 88.6158 28.6911C88.8086 28.7009 89.2074 28.7401 89.2139 28.7662Z" fill="white"/>
<path d="M91.76 33.1101C91.76 32.3649 91.76 31.623 91.76 30.8779C91.76 30.5935 91.7861 30.5707 92.077 30.5674C92.1325 30.5674 92.1881 30.5674 92.2436 30.5674C92.7372 30.5707 92.9398 30.7667 92.9398 31.257C92.9398 32.5218 92.9398 33.7899 92.9398 35.0547C92.9398 35.1822 92.9365 35.3096 92.9398 35.4338C92.9463 35.6168 92.8613 35.692 92.6816 35.6855C92.4757 35.6789 92.2698 35.6757 92.0639 35.6855C91.8384 35.6985 91.7534 35.6136 91.7567 35.3848C91.7665 34.6298 91.76 33.8683 91.76 33.1101Z" fill="white"/>
<path d="M93.003 29.5949C92.9964 29.9446 92.7023 30.2289 92.3624 30.2257C92.0061 30.2191 91.7153 29.9217 91.7218 29.5655C91.7283 29.206 92.0225 28.9184 92.3787 28.9249C92.7284 28.9282 93.0095 29.2289 93.003 29.5949Z" fill="white"/>
</svg>
