<?xml version="1.0" encoding="utf-8"?>
<!-- Generator: Adobe Illustrator 28.0.0, SVG Export Plug-In . SVG Version: 6.00 Build 0)  -->
<svg version="1.1" id="Layer_1" xmlns="http://www.w3.org/2000/svg" xmlns:xlink="http://www.w3.org/1999/xlink" x="0px" y="0px"
	 viewBox="0 0 907.09 510.24" style="enable-background:new 0 0 907.09 510.24;" xml:space="preserve">
<style type="text/css">
	.st0{fill-rule:evenodd;clip-rule:evenodd;fill:#D42027;}
	.st1{fill-rule:evenodd;clip-rule:evenodd;fill:#4B4B4A;}
	
		.st2{clip-path:url(#SVGID_00000104669929853719782620000010709715889217811124_);fill:url(#SVGID_00000131348920217680603110000011660537941218679429_);}
	
		.st3{clip-path:url(#SVGID_00000116936736863861241230000011592859124208210348_);fill:url(#SVGID_00000040573771166172967480000015944868085464302270_);}
	.st4{fill:#4B4B4A;}
	.st5{opacity:0;fill:#FFFFFF;}
</style>
<g>
	<g>
		<g>
			<g>
				<path class="st0" d="M307.72,277.18v-39.55c0-1.28,0.44-2.37,1.32-3.27c0.88-0.9,1.95-1.35,3.22-1.35h4.42v16.43h17.91v-16.43
					h9.07v44.16h-9.07v-19.65h-17.91v19.65H307.72z"/>
				<path class="st0" d="M348.12,277.18v-39.55c0-1.28,0.45-2.37,1.35-3.27c0.9-0.9,1.99-1.35,3.27-1.35h11.19
					c6.75,0,11.8,1.79,15.13,5.38c3.34,3.76,5.01,9.34,5.01,16.69c0,3.94-0.6,7.5-1.79,10.66c-1.38,3.25-3.16,5.75-5.4,7.45
					c-1.88,1.46-3.89,2.49-6.03,3.09c-2.06,0.59-5.17,0.9-9.36,0.9H348.12z M356.98,269.21h5.78c4.19,0,7.28-1.11,9.24-3.34
					c1.88-2.05,2.82-5.65,2.82-10.79c0-4.95-0.89-8.6-2.69-10.9c-1.71-2.32-4.45-3.47-8.19-3.47h-6.95V269.21z"/>
				<path class="st1" d="M388.49,277.18v-39.55c0-1.28,0.44-2.37,1.34-3.27c0.9-0.9,1.97-1.35,3.25-1.35h16.06
					c4.5-0.01,7.96,0.93,10.33,2.82c2.38,2.06,3.58,4.84,3.58,8.35c0,2.22-0.48,4.11-1.4,5.65c-0.95,1.44-2.26,2.62-3.96,3.46
					c2.21,0.94,3.91,2.27,5.1,3.97c1.09,1.65,1.65,3.79,1.65,6.44c0,4.28-1.35,7.61-4.08,10c-2.81,2.31-6.76,3.48-11.86,3.48H388.49
					z M397.17,250.08h10.32c2.21,0,3.82-0.38,4.84-1.16c1.01-0.77,1.54-1.97,1.54-3.59c0-1.63-0.52-2.82-1.54-3.59
					c-0.85-0.69-2.5-1.03-4.97-1.03h-10.2V250.08z M397.17,269.21h10.7c2.39,0,4.21-0.48,5.48-1.42c1.19-0.85,1.79-2.3,1.79-4.37
					c0-2.05-0.6-3.55-1.79-4.49c-1.1-0.86-2.97-1.3-5.6-1.3h-10.57V269.21z"/>
				<path class="st1" d="M493.77,277.18h-4.55c-1.3,0-2.36-0.41-3.19-1.22c-0.82-0.81-1.23-1.87-1.23-3.15v-18.33
					c0-2.06-0.63-3.55-1.89-4.5c-1.26-0.94-2.67-1.42-4.23-1.42c-1.56,0-2.95,0.48-4.16,1.42c-1.22,0.95-1.83,2.43-1.83,4.5v22.7
					h-9.11v-20.91c0-5.81,1.54-9.71,4.62-11.69c3.08-1.96,6.48-3.03,10.22-3.21c3.81,0,7.33,1,10.53,2.96
					c3.23,1.96,4.82,5.94,4.82,11.94V277.18z"/>
				<path class="st1" d="M455.23,243.81c-2.51-1.65-6.27-2.46-11.3-2.46c-4.48,0-7.92,0.99-10.35,2.97
					c-2.15,1.72-3.41,3.92-3.75,6.6h9c0.45-0.95,1.16-1.6,2.15-1.95c0.99-0.34,2.11-0.51,3.37-0.51c1.16,0,2.43,0.2,3.83,0.58
					c1.39,0.39,2.08,1.22,2.08,2.52c0,1.72-1.97,2.84-5.91,3.36c-0.82,0.09-1.54,0.18-2.16,0.32c-0.63,0.12-1.17,0.19-1.63,0.19
					c-3.4,0.51-6.2,1.56-8.4,3.1c-2.2,1.55-3.3,4.14-3.3,7.76c0,3.89,1.22,6.65,3.64,8.34c2.41,1.69,5.24,2.53,8.46,2.53
					c3.84,0,7.36-0.34,10.53-2.44c0.18,0.5,0.44,0.95,0.79,1.34c0.73,0.81,1.67,1.22,2.81,1.22h4.03v-14.48v-0.29v-11.48
					C459.13,247.94,457.83,245.53,455.23,243.81z M450.38,262.43c0,2.41-0.71,4.31-2.15,5.69c-1.44,1.38-3.41,2.08-5.91,2.08
					c-1.53,0-2.69-0.35-3.5-1.05c-0.8-0.76-1.2-1.79-1.2-3.09c0-0.95,0.3-1.91,0.93-2.85c0.73-0.69,1.88-1.24,3.5-1.67l3.1-0.65
					c2.24-0.52,3.99-1.08,5.24-1.68V262.43z"/>
				<path class="st1" d="M507.09,243.02v11.97l10.75-13.63h10.62l-12.02,14.76l12.14,21.07h-10.63l-6.18-11.56
					c-1.27-2.31-2.37-3.29-3.3-2.94c-0.93,0.34-1.39,0.85-1.39,1.52v4.76v8.22h-8.85v-44.17h4.56c1.17,0,2.18,0.43,3.03,1.28
					c0.84,0.87,1.26,1.85,1.26,2.96V243.02z"/>
				<g>
					<defs>
						<path id="SVGID_1_" d="M528.69,219.11c0,3.22,2.11,4.25,5.54,4.35c3.8,0.11,9.96-0.52,15.22-1.39c0.1,0,0.09-0.08,0.04-0.1
							c-8.52-3.08-6.76-17.77-7.02-18.75C541.62,200.01,528.69,211.37,528.69,219.11"/>
					</defs>
					<clipPath id="SVGID_00000068658854099314425820000000792994152567893142_">
						<use xlink:href="#SVGID_1_"  style="overflow:visible;"/>
					</clipPath>
					
						<linearGradient id="SVGID_00000176014482119684809050000006977422545263341498_" gradientUnits="userSpaceOnUse" x1="147.2375" y1="650.1808" x2="147.8908" y2="650.1808" gradientTransform="matrix(-18.4184 -39.4983 41.2776 -19.2481 -23580.9863 18554.832)">
						<stop  offset="0" style="stop-color:#F4A51D"/>
						<stop  offset="0.2" style="stop-color:#F9C013"/>
						<stop  offset="0.45" style="stop-color:#FEDC00"/>
						<stop  offset="1" style="stop-color:#FEDC00"/>
					</linearGradient>
					
						<polygon style="clip-path:url(#SVGID_00000068658854099314425820000000792994152567893142_);fill:url(#SVGID_00000176014482119684809050000006977422545263341498_);" points="
						558.58,219.35 545.83,192.01 519.67,204.21 532.43,231.56 					"/>
				</g>
				<g>
					<defs>
						<path id="SVGID_00000135655120546994213360000011120720853516699520_" d="M590.71,216.68c-5.49,2.41-28.17,10.11-50.98,10.85
							c0.88,13.16,9.52,27.58,16.57,27.58c17.9,0,32.28-29.84,35.3-36.23C592.77,216.52,591.88,216.17,590.71,216.68"/>
					</defs>
					<clipPath id="SVGID_00000039852729589719039210000013026525054302084540_">
						<use xlink:href="#SVGID_00000135655120546994213360000011120720853516699520_"  style="overflow:visible;"/>
					</clipPath>
					
						<linearGradient id="SVGID_00000172427366628500966370000014856863549256678814_" gradientUnits="userSpaceOnUse" x1="148.707" y1="651.8472" x2="149.5719" y2="651.8472" gradientTransform="matrix(72.3687 12.7605 -12.0021 68.0671 -2405.9148 -46037.2773)">
						<stop  offset="0" style="stop-color:#F4A51D"/>
						<stop  offset="0.5" style="stop-color:#FEDC00"/>
						<stop  offset="1" style="stop-color:#FEDC00"/>
					</linearGradient>
					
						<polygon style="clip-path:url(#SVGID_00000039852729589719039210000013026525054302084540_);fill:url(#SVGID_00000172427366628500966370000014856863549256678814_);" points="
						533.07,253.94 591.18,264.19 599.43,217.34 541.33,207.09 					"/>
				</g>
			</g>
		</g>
		<path class="st4" d="M493.62,306.49c-0.63,1.52-1.28,3.03-1.89,4.56c-0.23,0.57-0.56,0.83-1.2,0.82c-1.71,0-1.69,0.14-2.45-1.65
			c-1.88-4.45-3.72-8.92-5.7-13.38c-0.01,0.24-0.01,0.88-0.01,1.12c0,4.41-0.02,8.08-0.02,12.49c0,0.79-0.24,1.41-1.07,1.41
			c-3.3,0-2.97,0.08-2.97-2.58c0-5.89,0-12.13,0-18.01c0-1,0.05-1.04,1.01-1.04c0.9,0,1.79-0.01,2.69,0
			c1.32,0.01,2.13,0.56,2.63,1.78c1.74,4.25,5.31,12.97,5.43,13.23c0.45-1.09,4.26-10.36,5.72-14.04c0.28-0.72,0.66-1.02,1.45-0.98
			c1.23,0.06,2.47,0.04,3.7,0.01c0.62-0.02,0.87,0.18,0.87,0.83c-0.01,6.66-0.01,12.9,0,19.57c0,0.63-0.35,1.18-1,1.23
			c-0.47,0-0.73,0.04-1.17,0.02c-1.5-0.04-1.76-0.36-1.82-1.55c-0.01-0.22-0.01-0.68-0.01-0.9c0-3.92,0-7.85,0-11.77
			c0-0.25,0-0.51,0-0.76C497.76,296.86,494.96,303.28,493.62,306.49z"/>
		<path class="st4" d="M322.38,304.68c0-0.25,0-0.51,0-0.76c0-4.22,0-8.43,0-12.65c0-0.75,0.06-1.04,1.02-1.04c0.65,0,1.31,0,1.96,0
			c1,0,1.09,0.27,1.03,1.02c0,6.13,0,12.26,0,18.39c0,0.48,0,0.97,0,1.45c0,0.46-0.24,0.75-0.79,0.77c-0.53-0.02-0.95,0.04-1.6,0
			c-1.18,0.02-1.92-0.4-2.57-1.31c-3.02-4.24-6.08-8.45-9.12-12.68c-0.19-0.27-0.44-0.63-0.74-0.94c0,0.25,0,0.66,0,0.92
			c0,4.29,0,8.32,0,12.61c0,0.92-0.21,1.32-1.18,1.4c-0.36,0-0.73,0.01-1.09-0.01c-1.11-0.06-1.69-0.64-1.7-1.75
			c-0.02-1.91-0.01-3.83-0.01-5.74c0-4.36,0-8.72,0-13.08c-0.02-0.79,0.19-1.04,1-1.04c3.18-0.03,2.99-0.05,4.78,2.41
			c2.8,3.86,5.62,7.71,8.43,11.56c0.13,0.18,0.26,0.34,0.4,0.52C322.27,304.79,322.36,304.79,322.38,304.68z"/>
		<path class="st4" d="M378.77,308.94c-1.02,1.52-2.24,2.53-3.88,2.99c-2.1,0.59-4.36,0.18-6.11-1.12
			c-2.32-1.72-3.29-4.74-3.02-7.54c0.26-2.7,1.74-5.18,4.16-6.47c2.56-1.37,5.83-1.4,8.39,0c1.61,0.88,2.9,2.3,3.51,4.03
			c0.47,1.33,0.46,2.71,0.51,4.1c0.08,2.19,0.15,4.38-0.03,6.56c-0.3,3.7-2.66,5.98-6.34,6.63c-2.41,0.42-4.73,0.16-6.88-1.12
			c-1.27-0.76-2.16-1.85-2.73-3.21c-0.19-0.44-0.03-0.69,0.43-0.73c0.61-0.05,1.29-0.05,1.9,0.03c0.73,0.09,1.32,0.37,1.88,0.84
			c0.53,0.45,1.02,0.97,1.67,1.26c1.11,0.49,2.37,0.4,3.51,0.04c1.75-0.57,2.73-1.89,3.01-3.67
			C378.87,310.77,378.77,309.93,378.77,308.94z M369.3,303.71c0.01,1.91,0.48,3.32,1.76,4.36c2.04,1.65,5.2,1.29,6.76-0.74
			c1.69-2.21,1.29-5.91-0.85-7.46c-1.61-1.17-3.39-1.26-5.14-0.39C369.97,300.38,369.31,302.04,369.3,303.71z"/>
		<path class="st4" d="M415.14,298.87c1.05-1.24,2.11-2.09,3.42-2.59c1.69-0.65,3.41-0.71,5.11-0.1c2.14,0.76,2.95,2.56,3.07,4.61
			c0.18,3.11,0.16,6.24,0.21,9.36c0.03,1.84-0.08,1.92-1.92,1.69c-1.04-0.13-1.61-0.76-1.62-1.88c0-1.73,0.02-3.46,0-5.19
			c-0.02-1.36,0-2.87-0.49-4.16c-0.52-1.37-1.85-1.76-3.22-1.68c-0.19,0.01-0.38,0.03-0.57,0.07c-1.11,0.2-2.13,0.79-2.85,1.66
			c-0.7,0.85-1.09,1.93-1.12,3.03c-0.06,2.4-0.02,4.8-0.02,7.19c0,0.92-0.05,0.97-1,0.97c-0.56,0-1.12-0.04-1.67,0.01
			c-0.72,0.06-0.92-0.27-0.91-0.94c0.03-2.2,0.01-4.41,0.01-6.61c0-4.24,0-8.48,0-12.72c0-1.38,0-1.38,1.41-1.37
			c0.12,0,0.24,0,0.36,0c1.13,0.06,1.78,0.72,1.8,1.86c0.02,1.91,0.01,3.83,0.01,5.74C415.14,298.1,415.14,298.36,415.14,298.87z"/>
		<path class="st4" d="M402.09,293.77c0,0.37,0,0.65,0,0.94c0,4.94,0,9.88,0,14.82c0,1.85-0.48,2.33-2.32,2.33
			c-1.86,0-1.67,0.15-1.67-1.68c0-5.13,0-10.27,0-15.4c0-0.29,0-0.58,0-0.95c-0.3-0.02-0.55-0.05-0.81-0.05
			c-1.91,0-3.83-0.02-5.74,0.01c-0.65,0.01-0.87-0.24-0.84-0.85c0.03-0.46-0.01-0.92,0.01-1.38c0.03-0.97,0.37-1.3,1.34-1.31
			c1.14-0.01,2.28,0,3.41,0c4.33,0,8.67,0,13,0c1,0,1.05,0.37,1.05,1.4c0,0.51-0.03,0.7,0.01,1.2c0.05,0.68-0.21,0.96-0.92,0.94
			c-1.89-0.03-3.78-0.01-5.67-0.01C402.69,293.77,402.43,293.77,402.09,293.77z"/>
		<path class="st4" d="M464.14,306.69c0,1.45-0.02,2.91,0.01,4.36c0.01,0.6-0.24,0.8-0.82,0.82c-2.34,0.05-2.75-0.34-2.75-2.7
			c0-1.91,0.04-3.83-0.02-5.74c-0.02-0.79-0.1-1.62-0.39-2.34c-0.69-1.71-2.6-2.48-4.79-2.07c-1.77,0.34-2.99,1.65-3.03,3.48
			c-0.07,2.78-0.03,5.57-0.04,8.35c0,0.94-0.06,1-0.98,1c-0.63,0-1.26-0.01-1.89,0c-0.44,0.01-0.7-0.15-0.69-0.63
			c0.02-3.1-0.06-6.2,0.1-9.3c0.15-2.8,1.66-4.76,4.36-5.65c2.46-0.81,4.93-0.75,7.29,0.34c2.43,1.12,3.46,3.22,3.61,5.78
			c0.08,1.42,0.01,2.86,0.01,4.29C464.13,306.69,464.13,306.69,464.14,306.69z"/>
		<path class="st4" d="M348.17,302.23c0.19-3.42,2.2-5.64,5.58-6.27c2.18-0.4,4.3-0.26,6.3,0.75c2.21,1.13,3.29,3.05,3.38,5.46
			c0.1,2.97,0.04,5.96,0.06,8.93c0,0.52-0.21,0.72-0.73,0.75c-2.86,0-2.71,0.04-2.71-2.37c0-1.99-0.04-4.22-0.12-6.28
			c-0.03-3.49-3.15-5.39-6.28-3.81c-1.41,0.71-1.95,1.96-1.97,3.46c-0.02,2.66-0.01,5.25-0.01,7.91c0,0.95-0.26,1.07-0.97,1.09
			c-0.58,0-1.13,0.01-1.74,0.01c-0.65,0-0.87-0.22-0.86-0.84c0.02-1.5,0.01-3,0.01-4.5C348.12,306.51,348.09,303.65,348.17,302.23z"
			/>
		<g>
			<path class="st4" d="M438.04,312.27c-2.05,0.06-4.12-0.53-5.76-1.77c-0.68-0.52-1.28-1.14-1.76-1.85
				c-1.5-2.23-1.78-5.3-0.78-7.79c0.75-1.86,2.2-3.41,4.03-4.22c2.69-1.2,5.98-1.24,8.59,0.2c2.33,1.29,3.9,3.75,4.11,6.4
				c0.24,2.9-0.98,5.79-3.4,7.44c-0.82,0.56-1.73,0.98-2.69,1.24C439.61,312.13,438.82,312.25,438.04,312.27z M437.82,298.94
				c-3.02,0-5.06,2.03-5.08,5.05c-0.02,3.03,2.07,5.14,5.09,5.14c3.02,0,5.09-2.1,5.07-5.15
				C442.89,300.96,440.85,298.94,437.82,298.94z"/>
			<path class="st4" d="M442.48,294.99c-1.34,0.23-2.24,0.11-3.05-0.91c-0.5-0.65-1.04-1.39-1.61-2.11
				c-0.52,0.72-0.89,1.25-1.48,2.09c-0.76,1.2-1.95,1.14-3.12,0.97c0.14-0.19,1.76-2.68,2.49-3.82c0.28-0.38,0.55-0.69,1.31-0.77
				c0.04-0.02,0.1-0.01,0.14-0.01c2.22-0.06,2.23-0.06,3.44,1.74C441.2,293.07,441.8,293.96,442.48,294.99z"/>
		</g>
		<path class="st4" d="M337.51,312.27c-2.05,0.06-4.12-0.53-5.76-1.77c-0.68-0.52-1.28-1.14-1.76-1.85c-1.5-2.23-1.78-5.3-0.78-7.79
			c0.75-1.86,2.2-3.41,4.03-4.22c2.69-1.2,5.98-1.24,8.59,0.2c2.33,1.29,3.9,3.75,4.11,6.4c0.24,2.9-0.98,5.79-3.4,7.44
			c-0.82,0.56-1.73,0.98-2.69,1.24C339.08,312.13,338.3,312.25,337.51,312.27z M337.29,298.94c-3.02,0-5.06,2.03-5.08,5.05
			c-0.02,3.03,2.07,5.14,5.09,5.14c3.02,0,5.09-2.1,5.07-5.15C342.36,300.96,340.32,298.94,337.29,298.94z"/>
		<path class="st4" d="M341.96,294.99c-1.34,0.23-2.24,0.11-3.05-0.91c-0.5-0.65-1.04-1.39-1.61-2.11
			c-0.52,0.72-0.89,1.25-1.48,2.09c-0.76,1.2-1.95,1.14-3.12,0.97c0.14-0.19,1.76-2.68,2.49-3.82c0.28-0.38,0.55-0.69,1.31-0.77
			c0.04-0.02,0.1-0.01,0.14-0.01c2.22-0.06,2.23-0.06,3.44,1.74C340.67,293.07,341.27,293.96,341.96,294.99z"/>
		<g>
			<path class="st4" d="M518.31,297.39c0.43-0.68,0.84-1.31,1.32-2.06c-0.14,0.22-1.34-0.19-1.52-0.31
				c-0.49-0.32-0.71-0.97-0.67-1.54c0.04-0.59,0.38-1.15,0.88-1.45c0.99-0.61,2.34-0.12,2.78,0.94c0.65,1.55,0.13,2.94-0.69,4.25
				c-0.27,0.42-0.62,0.79-0.96,1.21c0.69,0.66,1.37,2.11,1.47,2.33c0.83,2,0.87,4.37,0.06,6.38c-1.29,3.18-4.31,4.91-7.65,5.08
				c-2.89,0.15-5.74-0.94-7.56-3.23c-2.02-2.55-2.06-6.37-0.49-9.15c1.92-3.37,5.91-4.6,9.56-3.84c0.47,0.1,0.93,0.23,1.38,0.39
				c0.52,0.18,1.03,0.41,1.51,0.67C517.79,297.08,518.32,297.39,518.31,297.39z M507.79,303.92c-0.04,3.02,1.98,5.16,4.94,5.21
				c3.06,0.05,5.2-2.02,5.24-5.08c0.04-2.95-2.02-5.07-4.96-5.11C509.9,298.9,507.83,300.89,507.79,303.92z"/>
			<path class="st4" d="M516.3,290.69c-1.56,1.37-3.09,2.78-4.7,4.1c-0.77,0.64-1.73,0.31-2.7,0.14c0.34-0.36,2.63-2.71,3.39-3.54
				c0.6-0.65,1.29-0.98,2.18-0.93C515.06,290.49,516.28,290.61,516.3,290.69z"/>
		</g>
		<g>
			<path class="st4" d="M524.09,303.97c0-2.28,0-4.55,0-6.83c0-0.87,0.08-0.94,0.97-0.95c0.17,0,0.34,0,0.51,0
				c1.51,0.01,2.13,0.61,2.13,2.11c0,3.87,0,7.75,0,11.62c0,0.39-0.01,0.78,0,1.16c0.02,0.56-0.24,0.79-0.79,0.77
				c-0.63-0.02-1.26-0.03-1.89,0c-0.69,0.04-0.95-0.22-0.94-0.92C524.11,308.62,524.09,306.29,524.09,303.97z"/>
			<path class="st4" d="M527.89,293.22c-0.02,1.07-0.92,1.94-1.96,1.93c-1.09-0.02-1.98-0.93-1.96-2.02
				c0.02-1.1,0.92-1.98,2.01-1.96C527.05,291.18,527.91,292.1,527.89,293.22z"/>
		</g>
	</g>
	<rect x="244.14" y="202.66" class="st5" width="63.45" height="115.66"/>
</g>
</svg>
